<?xml version="1.0" encoding="utf-8"?>
<!-- Generator: Adobe Illustrator 16.0.0, SVG Export Plug-In . SVG Version: 6.00 Build 0)  -->
<!DOCTYPE svg PUBLIC "-//W3C//DTD SVG 1.1//EN" "http://www.w3.org/Graphics/SVG/1.1/DTD/svg11.dtd">
<svg version="1.1" id="Layer_1" xmlns="http://www.w3.org/2000/svg" xmlns:xlink="http://www.w3.org/1999/xlink" x="0px" y="0px"
	 width="148.5px" height="128px" viewBox="0 0 148.5 128" enable-background="new 0 0 148.5 128" xml:space="preserve">
<rect fill="#FFFFFF" width="148.5" height="128"/>
<g>
	<polygon fill="#E1E1E1" points="21.416,45.51 17.416,45.51 17.416,28.468 34.458,28.468 34.458,32.468 21.416,32.468 	"/>
	<polygon fill="#E1E1E1" points="131.084,45.51 127.084,45.51 127.084,32.468 114.042,32.468 114.042,28.468 131.084,28.468 	"/>
	<polygon fill="#E1E1E1" points="131.084,99.532 114.042,99.532 114.042,95.532 127.084,95.532 127.084,82.49 131.084,82.49 	"/>
	<polygon fill="#E1E1E1" points="34.458,99.532 17.416,99.532 17.416,82.49 21.416,82.49 21.416,95.532 34.458,95.532 	"/>
</g>
<path fill="#E1E1E1" d="M44.363,56.224h-3.158v15.511h11.009V69.1h-7.852V56.224z M105.219,57.974
	c-1.383-1.43-3.227-2.145-5.531-2.145c-1.272,0-2.396,0.207-3.371,0.619c-0.732,0.306-1.406,0.775-2.021,1.408
	c-0.615,0.633-1.101,1.348-1.456,2.145c-0.477,1.081-0.715,2.418-0.715,4.011c0,2.49,0.687,4.442,2.06,5.862
	c1.373,1.418,3.222,2.127,5.547,2.127c2.297,0,4.132-0.713,5.505-2.139s2.06-3.4,2.06-5.925
	C107.295,61.391,106.603,59.403,105.219,57.974z M102.819,67.942c-0.807,0.907-1.84,1.36-3.1,1.36c-1.258,0-2.297-0.457-3.115-1.37
	c-0.817-0.914-1.227-2.257-1.227-4.028c0-1.799,0.398-3.145,1.195-4.038s1.846-1.339,3.146-1.339c1.303,0,2.346,0.441,3.131,1.323
	c0.786,0.882,1.179,2.219,1.179,4.011C104.029,65.676,103.626,67.036,102.819,67.942z M81.61,65.984h3.615v1.985
	c-0.477,0.369-1.046,0.685-1.712,0.944c-0.665,0.259-1.329,0.389-1.989,0.389c-1.338,0-2.418-0.464-3.242-1.392
	c-0.826-0.929-1.238-2.32-1.238-4.177c0-1.722,0.407-3.019,1.222-3.894c0.814-0.875,1.911-1.312,3.291-1.312
	c0.909,0,1.669,0.222,2.277,0.667c0.607,0.445,1.021,1.051,1.243,1.819l3.136-0.586c-0.313-1.437-1.015-2.563-2.107-3.376
	c-1.092-0.814-2.607-1.222-4.549-1.222c-1.494,0-2.743,0.26-3.744,0.779c-1.316,0.676-2.315,1.646-2.998,2.913
	c-0.684,1.266-1.024,2.713-1.024,4.342c0,1.5,0.306,2.889,0.917,4.165c0.611,1.278,1.526,2.26,2.741,2.945
	c1.218,0.687,2.644,1.028,4.278,1.028c1.288,0,2.56-0.243,3.814-0.73c1.255-0.486,2.214-1.05,2.874-1.69v-6.23H81.61V65.984z
	 M62.826,55.829c-1.273,0-2.397,0.207-3.372,0.619c-0.732,0.306-1.406,0.775-2.022,1.408c-0.615,0.633-1.1,1.348-1.456,2.145
	c-0.477,1.081-0.715,2.418-0.715,4.011c0,2.49,0.687,4.442,2.059,5.862c1.372,1.418,3.222,2.127,5.548,2.127
	c2.296,0,4.131-0.713,5.504-2.139s2.06-3.4,2.06-5.925c0-2.546-0.692-4.534-2.075-5.963C66.974,56.544,65.13,55.829,62.826,55.829z
	 M65.957,67.942c-0.807,0.907-1.841,1.36-3.099,1.36c-1.26,0-2.298-0.457-3.116-1.37c-0.817-0.914-1.227-2.257-1.227-4.028
	c0-1.799,0.398-3.145,1.195-4.038s1.845-1.339,3.147-1.339c1.301,0,2.345,0.441,3.13,1.323c0.786,0.882,1.179,2.219,1.179,4.011
	C67.167,65.676,66.765,67.036,65.957,67.942z"/>
</svg>
